#!OML:ASF X:\für Bonn\!DataBase\2005_08_10_Bjorn_Final\c3d\bjorn.ASF
:FULLY-SPECIFIED
:DEGREES
198
root 2.07425 4.85171 8.59032 -2030.82 -15.1165 173.326
lowerback 46.5238 0.251281 12.7159
upperback 26.3167 -8.50935 2.28662
thorax 10.1463 -8.82211 -2.24355
lowerneck 7.22709 -3.80575 24.0769
upperneck 10.2011 -4.06977 -8.84928
head 1.32494 -1.71467 -6.53659
rclavicle -7.15625e-015 -4.13472e-014
rhumerus -41.3099 -42.5901 -68.3324
rradius 28.775
rwrist -20.9843
rhand -15.0448 -2.95637
rfingers 7.12502
rthumb 11.1215 -32.6417
lclavicle -7.15625e-015 -4.13472e-014
lhumerus -34.0117 44.1992 62.7191
lradius 10.666
lwrist -35.3952
lhand -11.3524 -8.37152
lfingers 7.12502
lthumb 14.681 741.089
rfemur -313.279 -53.3413 200.213
rtibia 156.931
rfoot -66.0193 49.9213
rtoes -7.20112
lfemur -59.9169 45.939 20.3171
ltibia 146.417
lfoot -31.3922 -28.4161
ltoes -27.7596
199
root 2.09154 4.81224 8.60369 -2031.41 -15.3609 173.645
lowerback 46.4881 0.581932 12.6736
upperback 26.4565 -8.05443 2.25145
thorax 10.3252 -8.56727 -2.41349
lowerneck 7.16334 -3.86947 23.8948
upperneck 10.1985 -4.18266 -8.69536
head 1.32344 -1.77346 -6.45531
rclavicle 2.14687e-014 2.38542e-014
rhumerus -41.8779 -42.4781 -68.6326
rradius 28.6852
rwrist -21.6869
rhand -14.8822 -3.26864
rfingers 7.12502
rthumb 11.2784 -32.9454
lclavicle 2.14687e-014 2.38542e-014
lhumerus -35.8878 46.8486 60.2267
lradius 10.5533
lwrist -36.8392
lhand -11.2107 -8.07385
lfingers 7.12502
lthumb 14.8175 741.376
rfemur -313.911 -52.9242 200.695
rtibia 157.027
rfoot -65.8676 49.8785
rtoes -6.87307
lfemur -60.1047 45.5878 20.4453
ltibia 146.405
lfoot -31.2139 -28.8889
ltoes -27.8364
200
root 2.10616 4.77553 8.61748 -2031.98 -15.6082 173.938
lowerback 46.4433 0.932408 12.6007
upperback 26.5863 -7.5862 2.24949
thorax 10.5 -8.31305 -2.53522
lowerneck 7.08677 -3.9273 23.6092
upperneck 10.2171 -4.29498 -8.54525
head 1.33107 -1.83368 -6.36041
rclavicle 5.48646e-014 2.38542e-014
rhumerus -42.4048 -42.3061 -68.9293
rradius 28.6462
rwrist -22.4775
rhand -14.7277 -3.66286
rfingers 7.12502
rthumb 11.4273 -33.3314
lclavicle 5.48646e-014 2.38542e-014
lhumerus -37.2892 48.5185 58.4043
lradius 10.4118
lwrist -37.3353
lhand -11.1499 -7.5861
lfingers 7.12502
lthumb 14.8761 741.86
rfemur -314.534 -52.5943 201.168
rtibia 157.1
rfoot -65.7423 49.753
rtoes -6.82174
lfemur -60.2759 45.2555 20.5188
ltibia 146.391
lfoot -30.9841 -29.3868
ltoes -27.8539
201
root 2.11834 4.74245 8.63256 -2032.54 -15.8297 174.261
lowerback 46.3866 1.26709 12.5721
upperback 26.7113 -7.12456 2.26868
thorax 10.6777 -8.05864 -2.65167
lowerneck 6.98505 -3.97831 23.2732
upperneck 10.2402 -4.40329 -8.40523
head 1.34468 -1.89262 -6.26199
rclavicle 7.15625e-015 -4.13472e-014
rhumerus -42.8521 -42.1676 -69.2195
rradius 28.5318
rwrist -23.1897
rhand -14.5442 -3.97868
rfingers 7.12502
rthumb 11.6043 -33.6374
lclavicle 7.15625e-015 -4.13472e-014
lhumerus -38.6033 49.9514 56.755
lradius 10.3314
lwrist -37.6986
lhand -11.3635 -7.00425
lfingers 7.12502
lthumb 14.6703 742.457
rfemur -315.11 -52.301 201.671
rtibia 157.139
rfoot -65.5026 49.7288
rtoes -6.62691
lfemur -60.4521 44.9535 20.5989
ltibia 146.373
lfoot -30.7839 -29.8751
ltoes -27.8462
202
root 2.12873 4.71265 8.64807 -2033.09 -16.0603 174.599
lowerback 46.32 1.57865 12.5604
upperback 26.8252 -6.67992 2.29065
thorax 10.8452 -7.80836 -2.76487
lowerneck 6.84723 -4.0094 22.923
upperneck 10.33 -4.49284 -8.3186
head 1.3851 -1.94102 -6.18206
rclavicle 4.29375e-014 1.59028e-014
rhumerus -43.284 -41.9815 -69.5128
rradius 28.4414
rwrist -23.9407
rhand -14.2969 -4.32603
rfingers 7.12502
rthumb 11.8428 -33.9711
lclavicle 4.29375e-014 1.59028e-014
lhumerus -39.7833 51.0815 55.3284
lradius 10.3115
lwrist -37.8902
lhand -11.7304 -6.32335
lfingers 7.12502
lthumb 14.3168 743.163
rfemur -315.683 -52.0396 202.189
rtibia 157.159
rfoot -65.2276 49.7454
rtoes -6.3366
lfemur -60.6656 44.603 20.5901
ltibia 146.348
lfoot -30.6092 -30.2286
ltoes -27.9627
203
root 2.13682 4.68664 8.6653 -2033.59 -16.285 174.935
lowerback 46.2198 1.87421 12.5667
upperback 26.9256 -6.23716 2.31194
thorax 11.0029 -7.54958 -2.88385
lowerneck 6.77739 -4.02984 22.5331
upperneck 10.3908 -4.55352 -8.22287
head 1.41174 -1.97674 -6.09203
rclavicle -3.4191e-014 3.33958e-014
rhumerus -43.7213 -41.866 -69.7296
rradius 28.3148
rwrist -24.5568
rhand -14.019 -4.68851
rfingers 7.12502
rthumb 12.1108 -34.318
lclavicle -3.4191e-014 3.33958e-014
lhumerus -40.7072 51.8535 54.2547
lradius 10.3535
lwrist -37.8037
lhand -12.2507 -5.8733
lfingers 7.12502
lthumb 13.8154 743.648
rfemur -316.172 -51.7871 202.674
rtibia 157.151
rfoot -64.955 49.7233
rtoes -6.18475
lfemur -60.9367 44.1841 20.4728
ltibia 146.318
lfoot -30.3326 -30.5683
ltoes -27.9586
